<?xml version="1.0" encoding="UTF-8"?>
<svg version="1.1" xmlns="http://www.w3.org/2000/svg" width="128" height="128">
<path d="M0 0 C1.875 0.125 1.875 0.125 4 1 C6.43029078 5.86058157 6.2118651 10.70337242 6 16 C7.98 16 9.96 16 12 16 C14.29186474 19.63788054 14.26795835 22.7618285 14.25 27 C14.25515625 28.216875 14.2603125 29.43375 14.265625 30.6875 C14.01981559 33.75288791 13.6149234 35.43662952 12 38 C10.02 38 8.04 38 6 38 C6 41.63 6 45.26 6 49 C7.36125 49.0928125 7.36125 49.0928125 8.75 49.1875 C12.96153175 50.24038294 13.74241386 51.31260931 16 55 C24.19842795 71.18586694 23.8015019 92.55554459 20 110 C16.50580431 120.49419569 16.50580431 120.49419569 13 124 C11.68 124 10.36 124 9 124 C6.19043486 117.67847844 5.6575722 110.00906041 7.86328125 103.421875 C8.58146528 101.80269645 9.30415235 100.18550799 10.03125 98.5703125 C12.34591502 92.42898353 12.88933263 85.62320959 10.75 79.375 C9.25058843 75.81799567 9.25058843 75.81799567 6 74 C6.01047363 75.03294189 6.02094727 76.06588379 6.03173828 77.13012695 C6.06831016 81.01225227 6.09103387 84.89436281 6.10986328 88.77661133 C6.11983703 90.44753593 6.1334209 92.11844347 6.15087891 93.78930664 C6.39796505 118.06915383 6.39796505 118.06915383 1.75 123.75 C-1 125 -1 125 -4.0625 125.125 C-8.14841637 123.56018097 -9.02083355 121.89008578 -11 118 C-17.22156881 101.36285839 -17.27498649 79.95536683 -10.53515625 63.40234375 C-6.8568314 55.8568314 -6.8568314 55.8568314 -4 53 C-3.69400937 50.43083343 -3.48912913 47.95241616 -3.375 45.375 C-3.31699219 44.31539062 -3.31699219 44.31539062 -3.2578125 43.234375 C-3.16352276 41.49001476 -3.08067109 39.74504309 -3 38 C-5.64 38 -8.28 38 -11 38 C-13.38456876 30.56575623 -13.49017836 23.47053509 -11 16 C-8.36 16 -5.72 16 -3 16 C-3.03480469 15.34773437 -3.06960937 14.69546875 -3.10546875 14.0234375 C-3.27610432 8.51434628 -3.0363889 4.80761576 0 0 Z M-4 81 C-6.37221047 85.59615778 -6.47522861 89.94612651 -6 95 C-5.13346586 97.93080674 -5.13346586 97.93080674 -4 100 C-3.67 100 -3.34 100 -3 100 C-3 93.73 -3 87.46 -3 81 C-3.33 81 -3.66 81 -4 81 Z " fill="#E3EB70" transform="translate(102,0)"/>
<path d="M0 0 C1.875 0.25 1.875 0.25 4 1 C6.59210377 4.60014412 6.22929496 8.50599726 6.125 12.75 C6.11597656 13.44738281 6.10695313 14.14476562 6.09765625 14.86328125 C6.07419888 16.57566958 6.03833104 18.28788004 6 20 C6.62648438 19.98839844 7.25296875 19.97679688 7.8984375 19.96484375 C8.71570313 19.95582031 9.53296875 19.94679688 10.375 19.9375 C11.18710937 19.92589844 11.99921875 19.91429688 12.8359375 19.90234375 C15 20 15 20 17 21 C19.54463493 29.19937923 19.30595528 35.78503432 17 44 C12.05 44.495 12.05 44.495 7 45 C5.86865241 61.51767484 6.62009374 73.73113276 14.99243164 88.16577148 C18.65586368 94.83486887 19.44618008 103.0094248 17.32421875 110.33203125 C16.5 112.25 16.5 112.25 15 115 C13.140625 114.78515625 13.140625 114.78515625 11 114 C9.734375 111.93359375 9.734375 111.93359375 8.75 109.4375 C8.41484375 108.61121094 8.0796875 107.78492187 7.734375 106.93359375 C7.49203125 106.29550781 7.2496875 105.65742187 7 105 C6.75765625 106.09699219 6.5153125 107.19398437 6.265625 108.32421875 C5.9277847 109.77880891 5.58920375 111.23322719 5.25 112.6875 C5.09273437 113.40873047 4.93546875 114.12996094 4.7734375 114.87304688 C3.68581245 119.45362161 2.39570115 122.55814369 -1 126 C-3.89472505 127.11335579 -5.53055907 127.09159823 -8.5625 126.5 C-13.20168731 123.6451155 -14.61744601 119.32142275 -16.06640625 114.31640625 C-19.6472617 99.24936185 -19.783863 79.64513589 -12.4140625 65.78515625 C-10.75314623 63.68836416 -9.51077195 62.89804765 -7 62 C-5.68 62 -4.36 62 -3 62 C-3.00666183 61.32650009 -3.01332367 60.65300018 -3.02018738 59.95909119 C-3.08667619 52.93477157 -3.13185703 45.91054171 -3.16479492 38.88598633 C-3.17985979 36.26615771 -3.20031554 33.64635422 -3.22631836 31.02661133 C-3.26280162 27.25595895 -3.27974988 23.48564074 -3.29296875 19.71484375 C-3.30845261 18.54791489 -3.32393646 17.38098602 -3.33988953 16.17869568 C-3.3411632 9.99217732 -2.99162867 5.46222397 0 0 Z M-6 86 C-9.08972418 89.08972418 -8.96334732 92.74828934 -9 97 C-8.21136479 99.94661406 -8.21136479 99.94661406 -7 102 C-6.01 102 -5.02 102 -4 102 C-2.55792059 99.11584117 -2.90605113 96.58278472 -2.9375 93.375 C-2.94652344 92.18648438 -2.95554687 90.99796875 -2.96484375 89.7734375 C-2.97644531 88.85820313 -2.98804688 87.94296875 -3 87 C-3.99 86.67 -4.98 86.34 -6 86 Z " fill="#E3EB70" transform="translate(18,1)"/>
<path d="M0 0 C2.04736328 0.71003723 2.04736328 0.71003723 4 2 C6.51070714 9.35595741 6.23903658 16.85866755 6.15032959 24.54850197 C6.12446218 26.81668979 6.11168518 29.08463947 6.10205078 31.35295105 C6.07551414 36.98585357 6.02717798 42.61852792 5.97924805 48.25128174 C5.93948702 53.02056858 5.90833041 57.78976834 5.88812256 62.55917931 C5.87534365 64.7725101 5.850332 66.98547129 5.82470703 69.19868469 C5.76664262 77.32691779 6.32228738 85.03340668 8 93 C9.32 93.33 10.64 93.66 12 94 C15.31308134 87.35000221 17.18017664 80.81800827 18.6875 73.5625 C19.10596145 71.60501618 19.52643232 69.6479605 19.94921875 67.69140625 C20.12799561 66.83748291 20.30677246 65.98355957 20.4909668 65.10375977 C21 63 21 63 22 61 C23.65 61.33 25.3 61.66 27 62 C31.08642069 71.44984785 28.78521088 81.80001832 26.75 91.5 C26.54503906 92.55058594 26.34007813 93.60117188 26.12890625 94.68359375 C24.16761276 104.29987516 22.11157479 113.88842521 15 121 C11.86128812 122.56935594 9.46144178 122.35201103 6 122 C-0.49141661 117.27896974 -1.87809122 110.49803984 -3.06542969 102.99023438 C-4.36258288 93.53793011 -4.28921887 84.1191083 -4.265625 74.59375 C-4.26697545 72.65515087 -4.26891913 70.71655208 -4.27142334 68.7779541 C-4.27435111 64.74386321 -4.27014947 60.70986166 -4.26074219 56.67578125 C-4.24928742 51.51336403 -4.25595988 46.35115344 -4.26788712 41.18874359 C-4.27511714 37.19786014 -4.27281358 33.20702568 -4.26763153 29.21614075 C-4.26630138 27.31199621 -4.26792044 25.40784716 -4.27259064 23.50370789 C-4.27768146 20.84805493 -4.26991251 18.19273739 -4.25878906 15.53710938 C-4.26486176 14.36816132 -4.26486176 14.36816132 -4.27105713 13.17559814 C-4.23681787 8.75298646 -3.78340779 5.06746951 -2 1 C-1.34 0.67 -0.68 0.34 0 0 Z " fill="#E3EB70" transform="translate(52,4)"/>
<path d="M0 0 C0.99 0 1.98 0 3 0 C11.29109914 28.0791891 11.29109914 28.0791891 6 38 C4.125 37.875 4.125 37.875 2 37 C0.09480134 32.33081994 -0.76832428 27.50586858 -1.625 22.5625 C-1.82609375 21.47485352 -1.82609375 21.47485352 -2.03125 20.36523438 C-3.23401812 13.53522967 -3.65822983 7.56739134 -1 1 C-0.67 0.67 -0.34 0.34 0 0 Z " fill="#E4EC70" transform="translate(120,14)"/>
</svg>
